<svg xmlns="http://www.w3.org/2000/svg" viewBox="0 0 656 659"><defs><style>.cls-1{fill:#fff;}.cls-2{fill:#f3c;}.cls-3{fill:#36f;}</style></defs><title>Club_Huyzch_logo</title><g id="Layer_1_copy" data-name="Layer 1 copy"><path class="cls-1" d="M238.54,173q7.89-2.13,13.66,2.39a17.91,17.91,0,0,1,6.34,9.92q3.09,11.43-.64,28.12a98.09,98.09,0,0,1-10.64,27.13q-4.86,8.27-8.63,9.28a6.25,6.25,0,0,1-5.26-1.24,6.14,6.14,0,0,1-2.61-3.59q-1.11-4.12,4.65-11.37a70.47,70.47,0,0,0,11.7-20.85q5.34-15.35,2.93-24.3c-.65-2.44-1.67-4.1-3-5a6.33,6.33,0,0,0-5.25-.48q-6.48,1.75-15.84,14.38Q215.19,211.67,205,234q-13,28.39-16.91,53.61-4.08,26.13.36,42.63a21.08,21.08,0,0,0,8.22,12.2q6.75,4.88,14.06,2.91,12.72-3.42,26.72-28.44a174.3,174.3,0,0,0,9.33-21.22A88.61,88.61,0,0,0,251,283.44c.57-2.59,1.63-4.1,3.21-4.53s2.81.13,3.25,1.78q1.44,5.31-6.78,27.37a115,115,0,0,1-17.37,31.73q-11.9,15-25.1,18.52-13.78,3.72-24.67-6.63A35,35,0,0,1,173.82,335q-6.85-25.45,6.74-70.72,11.63-38.52,28.94-64.81Q224.52,176.79,238.54,173Z"/><path class="cls-1" d="M282.86,281.68q-1.07,10.14-1.3,16.28t.36,8.37c.53,2,1.73,2.7,3.62,2.19q4.24-1.14,8.8-11A151,151,0,0,0,300,281q1.39-4.67,4.11-5.4,3.06-.82,3.86,2.12,1.37,5.07-6.15,23.65-7.79,19.42-18.16,22.22a9.05,9.05,0,0,1-8.32-1.81,11.18,11.18,0,0,1-3.79-6.06q-1.77-6.6-.91-19.35a296.94,296.94,0,0,1,4.25-31.61q8.81-48,22.48-81.28,10.89-26.7,22-29.68a7.41,7.41,0,0,1,6.51,1.15,9.58,9.58,0,0,1,4,5.61q4.45,16.52-14.67,62.87a294.24,294.24,0,0,1-22.38,42.69Q289.19,271.89,282.86,281.68Zm3.32-21q18.85-27.59,29.56-64.85,5.53-19.32,4.08-24.74-.7-2.59-2.94-2-6.48,1.74-16.62,32.16Q291.83,226.3,286.18,260.68Z"/><path class="cls-1" d="M354,285.15a127.82,127.82,0,0,1-5.91,13.73q-4.8,9.39-11.52,11.2a10.37,10.37,0,0,1-10.36-2.77,17.05,17.05,0,0,1-4.59-8.12q-4.09-15.21,3.57-38.39,3.54-10.8,8.13-17.23,3.54-5.13,6.49-5.92a4.43,4.43,0,0,1,3.45.59,4,4,0,0,1,1.87,2.27q.62,2.25-2.39,8.49a124.84,124.84,0,0,0-9.07,25.45q-2.82,13-1.07,19.5a3.91,3.91,0,0,0,1.45,2.33,2.85,2.85,0,0,0,2.42.3q6-1.62,12.1-21.72a113.29,113.29,0,0,0,4.21-22.37,41.77,41.77,0,0,1,2.72-12q2.19-5,5.37-5.87a4.37,4.37,0,0,1,3.59.68,5.41,5.41,0,0,1,2.52,3.24q1.14,4.24-3,21.28-2.77,11.75-.93,18.59a21,21,0,0,0,7.25,11.44c1,.75,3.53,1.67,7.69,2.74a5.51,5.51,0,0,1,3.93,4.25,4.8,4.8,0,0,1-.84,4.14,6.94,6.94,0,0,1-4,2.73,15.61,15.61,0,0,1-12-1.83q-5.51-3.08-8.84-10.77C355.85,290.46,355.11,288.47,354,285.15Z"/><path class="cls-1" d="M405.8,224.16q7.72-11.19,15.74-13.34a10.19,10.19,0,0,1,9.25,1.93,13.61,13.61,0,0,1,5.23,7.69q2.48,9.19,0,23.9a95.17,95.17,0,0,1-12.18,32.23q-7.69,13.2-17.24,15.77a15.9,15.9,0,0,1-6.77.43,15.24,15.24,0,0,1-6.18-2.5c-.33,1.27-.53,2.08-.6,2.44a35,35,0,0,1-1.34,6.05,3.09,3.09,0,0,1-2.17,1.59c-1.41.38-3-.08-4.67-1.4a5.78,5.78,0,0,1-2.25-3.18q-.89-3.3,4.57-37a831.1,831.1,0,0,1,21.48-95.3q5.56-19.69,7-23.25c1-2.8,2.23-4.39,3.65-4.77a5.94,5.94,0,0,1,5.29,1.35,6.33,6.33,0,0,1,2.34,3.54c.45,1.65.26,3.94-.55,6.85q-.25,1-4.16,14.14Q409.8,200.08,405.8,224.16Zm-6.12,56.39a7.19,7.19,0,0,0,4.15.14q10.26-2.76,16.9-23.64a87.69,87.69,0,0,0,4.08-18.16c.53-5.21.5-8.94-.12-11.22a5.14,5.14,0,0,0-2-3.2,4.56,4.56,0,0,0-3.61-.23q-5.41,1.47-11.08,10.95t-9.4,25.17q-1.75,7.54-2.8,14l-.67,3.6A15,15,0,0,0,399.68,280.55Z"/><path class="cls-1" d="M86.57,563.49,52.86,438.39l16.56-4.46L83.26,485.3l65-17.52-13.84-51.37L151,412l33.7,125.1-16.55,4.46-15.89-59-65,17.51,15.88,59Z"/><path class="cls-1" d="M234.44,389.47,251,385l19.47,72.28q5.08,18.85,3.8,31.1t-10.54,22.2q-9.26,10-27.35,14.83-17.58,4.74-30.39,1.69a35.78,35.78,0,0,1-20.69-13.24q-7.86-10.19-13.22-30.07L152.6,411.52l16.56-4.46,19.45,72.19q4.39,16.31,9.5,23.21a23.86,23.86,0,0,0,13.62,9.1q8.51,2.19,19.17-.68,18.27-4.92,23.8-15.29t-.81-33.92Z"/><path class="cls-1" d="M321.29,500.26l-14.27-53-67.65-59.12,20.14-5.42,34.83,31.07q9.68,8.74,18.41,17.74,3-11.32,7.7-25.78l14.33-43.31,19.29-5.2-30.5,85.56,14.28,53Z"/><path class="cls-1" d="M366.42,488.1l-4.14-15.36,42.5-97.4q4.53-10.36,9-18.34L344,375.8,340,361l89.6-24.14,4,14.77L386.7,457.37l-5.23,10.84,79.88-21.52,4,14.76Z"/><path class="cls-1" d="M534.39,395.8l17.68-.28q.28,21.8-10.35,36.15t-30.18,19.62q-20.24,5.44-35.12.63t-25.71-18.66a88.15,88.15,0,0,1-15.65-31.75Q429.8,382,433.34,365.4a53,53,0,0,1,15.3-27.82,64.34,64.34,0,0,1,28.3-15.73q18.78-5.06,34.15,1T536.17,345l-15.27,8.23q-8-12.48-18-16.48t-22.5-.62Q466,340,458.17,349.52a37.73,37.73,0,0,0-8.61,22.22,77,77,0,0,0,2.55,25.08q4.29,16,12.15,26.61t19.26,13.9a42,42,0,0,0,22.84.16q13.9-3.74,21.39-14.36T534.39,395.8Z"/><path class="cls-1" d="M557.45,436.63l-33.7-125.1,16.56-4.46,13.84,51.37,65-17.52-13.84-51.37,16.56-4.46,33.7,125.1L639,414.65l-15.89-59-65,17.52,15.89,59Z"/></g><g id="Layer_5" data-name="Layer 5"><path class="cls-1" d="M585.19,473A291.87,291.87,0,0,1,180,581.6l-10.59,2.84A298.59,298.59,0,0,0,330,631c115.44,0,215.64-65.22,265.8-160.81Z"/><path class="cls-1" d="M46.85,402.66A292.09,292.09,0,0,1,611.06,251.48l7.71-2.06C583.23,123.38,467.41,31,330,31,164.31,31,30,165.31,30,331a300.66,300.66,0,0,0,9.14,73.73Z"/></g><g id="Layer_5_copy" data-name="Layer 5 copy"><path class="cls-2" d="M32.59,406.48a307.08,307.08,0,0,1,593.21-159l7.71-2.06C596.57,112.55,474.68,15,330,15,156,15,15,156,15,330a315.82,315.82,0,0,0,9.87,78.55Z"/><path class="cls-2" d="M604.35,467.9a306.82,306.82,0,0,1-443,118.69l-10.2,2.74A313.59,313.59,0,0,0,330,645c125.6,0,234-73.51,284.6-179.85Z"/></g><g id="Layer_5_copy_2" data-name="Layer 5 copy 2"><path class="cls-3" d="M18.1,410.37A322.09,322.09,0,0,1,640.3,243.65l7.7-2.07C609.35,102.27,481.63,0,330,0,147.75,0,0,147.75,0,330a330.4,330.4,0,0,0,10.38,82.43Z"/><path class="cls-3" d="M623.43,462.78A321.89,321.89,0,0,1,142.32,591.7l-9.89,2.65A328.54,328.54,0,0,0,330,660c136,0,252.84-82.33,303.33-199.87Z"/></g></svg>